<?xml version="1.0" encoding="utf-8"?>
<!-- Generator: Adobe Illustrator 16.0.0, SVG Export Plug-In . SVG Version: 6.00 Build 0)  -->
<!DOCTYPE svg PUBLIC "-//W3C//DTD SVG 1.1//EN" "http://www.w3.org/Graphics/SVG/1.1/DTD/svg11.dtd">
<svg version="1.1" id="Layer_1" xmlns="http://www.w3.org/2000/svg" xmlns:xlink="http://www.w3.org/1999/xlink" x="0px" y="0px"
	 width="340.291px" height="337.376px" viewBox="0 0 340.291 337.376" enable-background="new 0 0 340.291 337.376"
	 xml:space="preserve">
<g>
	<path fill="#CC2127" d="M114.95,179.053c0.21-4.789,0.21-9.57,0-14.32c-1.01-22.73-6.82-44.8-16.84-64.84
		c-9.33-18.65-22.29-35.54-38.43-49.55c14.15-13.35,29.46-23.37,47.35-30.99c27.13,27.19,46.27,60.87,55.92,97.38
		c4.709,17.85,7.16,36.38,7.16,55.16C151.34,171.893,132.811,174.333,114.95,179.053z"/>
	<path fill="#CC2127" d="M162.951,227.053c-8.961,33.92-26.05,65.141-49.78,90.98c-18.19-6.891-33.9-16.27-48.59-29.03
		c14.05-13.239,24.9-27.84,33.53-45.11C118.17,233.863,140.24,228.062,162.951,227.053z"/>
	<path fill="#3F2F85" d="M318.22,230.673c-7.57,17.75-17.52,32.96-30.73,47.03c-13.31-14.18-27.979-25.109-45.369-33.811h-0.01
		c-10.03-20.06-15.83-42.129-16.84-64.84C260.07,188.243,292.021,205.993,318.22,230.673z"/>
	<path fill="#3F2F85" d="M177.271,227.053c-4.791-0.209-9.57-0.209-14.32,0c-22.71,1.01-44.78,6.811-64.84,16.84
		c-16.8,8.4-32.18,19.76-45.33,33.76c-13.21-14.069-23.15-29.289-30.72-47.039c26.4-24.85,58.4-42.45,92.89-51.561
		c17.86-4.72,36.39-7.16,55.161-7.16C170.111,190.663,172.55,209.193,177.271,227.053z"/>
	<path fill="#2BAA4A" d="M280.59,50.303c-16.41,14.23-28.771,30.17-38.479,49.59c-20.041,10.02-42.11,15.83-64.84,16.84
		c9.729-36.84,29.029-70.44,55.939-97.41C251.111,26.943,266.43,36.963,280.59,50.303z"/>
	<path fill="#2BAA4A" d="M275.68,289.043c-14.69,12.75-30.409,22.141-48.61,29.01c-23.93-26.039-40.91-57.33-49.799-91
		c-4.721-17.859-7.16-36.39-7.16-55.16c18.77,0,37.299-2.439,55.16-7.16c-0.211,4.79-0.211,9.57,0,14.32
		c1.01,22.711,6.81,44.78,16.84,64.84h0.01C250.47,260.613,261.771,275.934,275.68,289.043z"/>
	<path fill="#F6AC1B" d="M114.95,164.733c-35.94-9.5-68.82-28.1-95.46-54.02c6.92-18.37,16.38-34.21,29.27-49.01
		c14.19,16.26,30.05,28.54,49.35,38.19C108.13,119.933,113.94,142.003,114.95,164.733z"/>
	<path fill="#F6AC1B" d="M320.8,110.653c-26.88,26.17-59.859,44.66-95.529,54.08c-17.861,4.72-36.391,7.16-55.16,7.16
		c0-18.779-2.451-37.31-7.16-55.16c4.789,0.21,9.57,0.21,14.32,0c22.729-1.01,44.799-6.82,64.84-16.84
		c18.569-9.29,35.399-22.19,49.39-38.24C304.4,76.443,313.871,92.283,320.8,110.653z"/>
</g>
</svg>
